<?xml version="1.0" encoding="UTF-8"?>
<svg id="Layer_2" data-name="Layer 2" xmlns="http://www.w3.org/2000/svg" xmlns:xlink="http://www.w3.org/1999/xlink" viewBox="0 0 656.94 584.84">
  <defs>
    <style>
      .cls-1 {
        fill: #464561;
      }

      .cls-1, .cls-2, .cls-3, .cls-4, .cls-5, .cls-6, .cls-7, .cls-8, .cls-9, .cls-10, .cls-11, .cls-12, .cls-13 {
        stroke: #000;
        stroke-linecap: round;
        stroke-linejoin: round;
      }

      .cls-1, .cls-3, .cls-4, .cls-8, .cls-12 {
        stroke-width: 11px;
      }

      .cls-2, .cls-14, .cls-4, .cls-5, .cls-10 {
        fill: #fff;
      }

      .cls-2, .cls-13 {
        stroke-width: 12px;
      }

      .cls-3, .cls-11 {
        fill: #b9b5ff;
      }

      .cls-15, .cls-8, .cls-9 {
        fill: none;
      }

      .cls-5, .cls-7 {
        stroke-width: 9px;
      }

      .cls-6 {
        fill: #818bae;
        stroke-width: 6px;
      }

      .cls-7 {
        fill: #ffeb57;
      }

      .cls-9 {
        stroke-width: 14px;
      }

      .cls-10, .cls-11 {
        stroke-width: 13px;
      }

      .cls-12 {
        fill: #7d7bad;
      }

      .cls-13 {
        fill: #fafaff;
      }

      .cls-16 {
        clip-path: url(#clippath);
      }
    </style>
    <clipPath id="clippath">
      <path class="cls-15" d="M333.7,175.83h391.22c1.55,0,2.81,1.26,2.81,2.81v51.72c0,1.55-1.26,2.81-2.81,2.81h-391.22v-57.34h0Z" transform="translate(98.18 573.82) rotate(-61.57)"/>
    </clipPath>
  </defs>
  <g id="Layer_2-2" data-name="Layer 2">
    <g>
      <g>
        <polygon class="cls-1" points="595.85 504.52 185.67 579.34 55.09 199.77 447.78 138.97 595.85 504.52"/>
        <polygon class="cls-12" points="559.26 483.32 203.79 546.88 82.64 194.72 425.89 138.97 559.26 483.32"/>
        <polygon class="cls-13" points="585.46 478.86 228.88 542.61 107.73 190.45 450.99 134.7 585.46 478.86"/>
        <line class="cls-6" x1="180.9" y1="238.25" x2="424.36" y2="198.74"/>
        <line class="cls-6" x1="195.57" y1="283.61" x2="439.03" y2="244.1"/>
        <line class="cls-6" x1="212.67" y1="328.97" x2="456.13" y2="289.46"/>
        <line class="cls-6" x1="229.77" y1="378.22" x2="473.23" y2="338.71"/>
        <line class="cls-6" x1="247.63" y1="430.45" x2="491.09" y2="390.94"/>
        <line class="cls-6" x1="261.71" y1="478.57" x2="505.17" y2="439.06"/>
      </g>
      <g>
        <polygon class="cls-10" points="411.69 364.1 462.12 391.4 395.27 449.8 411.69 364.1"/>
        <path class="cls-11" d="M333.7,175.83h391.22c1.55,0,2.81,1.26,2.81,2.81v51.72c0,1.55-1.26,2.81-2.81,2.81h-391.22v-57.34h0Z" transform="translate(98.18 573.82) rotate(-61.57)"/>
        <g class="cls-16">
          <line class="cls-5" x1="581.21" y1="56.76" x2="624.56" y2="82.2"/>
          <line class="cls-5" x1="568.5" y1="82.2" x2="611.86" y2="107.65"/>
        </g>
        <path class="cls-9" d="M631.08,82.2l6.63,3.72c6.65,3.73,8.98,12.16,5.2,18.78l-64.15,112.39"/>
      </g>
      <path class="cls-3" d="M349.72,71.71c0,17.98-14.6,32.58-32.58,32.58h-105.06c-13.47,0-24.42-10.96-24.42-24.42s10.96-24.47,24.42-24.47c2.68,0,5.27.42,7.69,1.25-.92-3.35-1.42-6.9-1.42-10.58,0-22.42,18.19-40.57,40.57-40.57s39.65,17.23,40.57,38.81c5.1-3.3,11.17-5.19,17.65-5.19,17.98,0,32.58,14.6,32.58,32.58Z"/>
      <path class="cls-2" d="M650.94,431.94c0,13.25-10.76,24.01-24.01,24.01h-77.43c-9.93,0-18-8.08-18-18s8.08-18.03,18-18.03c1.97,0,3.88.31,5.67.92-.68-2.47-1.05-5.09-1.05-7.8,0-16.52,13.41-29.9,29.9-29.9s29.22,12.7,29.9,28.61c3.76-2.44,8.23-3.82,13.01-3.82,13.25,0,24.01,10.76,24.01,24.01Z"/>
      <g>
        <path class="cls-14" d="M55.08,349.2s-2.04-19.94,0-21.52,24.4-20.26,24.4-20.26c0,0,23.83-2.24,24.63-1.26s15.48,18.96,15.48,18.96l3.2,26.61s45.12-.27,46.45,0,12.93,9.28,12.93,9.28l-1.11,23.55-5.35,13.79,2.87,18.51s-7.59,11.95-10.2,11.85-40.69.89-40.69.89l4.45,25.66-94.5-1.29s-25.63-10.95-26.7-11.21-3.26-33.27-3.26-33.27l18.75-18.52,11.48-4.54,17.18-4v-33.23Z"/>
        <path class="cls-4" d="M39.31,387.64c-18.68,0-33.81,15.14-33.81,33.81s15.14,33.81,33.81,33.81h90.87"/>
        <path class="cls-4" d="M55.08,339.63c0-18.48,14.98-33.46,33.46-33.46,23.58,0,36.39,13,32.06,43.03"/>
        <path class="cls-8" d="M113.1,429.61s49.65,0,49.65,0c10.11,0,18.31-8.2,18.31-18.31s-8.2-18.31-18.31-18.31"/>
        <path class="cls-8" d="M70.74,392.98h92.01c12.09,0,21.89-9.8,21.89-21.89s-9.8-21.89-21.89-21.89h-42.15"/>
      </g>
    </g>
    <path class="cls-7" d="M198.48,205.49c-4.1,9.7-12.21,18.87-23.33,25.19-22.15,12.59-47.88,9.12-57.46-7.75-8.66-15.23-1.2-36.17,16.63-49.36-4.05,9.61-4.18,19.74.59,28.14,9.59,16.87,35.31,20.35,57.47,7.76,2.15-1.22,4.19-2.55,6.11-3.97Z"/>
  </g>
</svg>