<?xml version="1.0" encoding="UTF-8"?>
<svg id="Layer_2" data-name="Layer 2" xmlns="http://www.w3.org/2000/svg" xmlns:xlink="http://www.w3.org/1999/xlink" viewBox="0 0 506.28 509.12">
  <defs>
    <style>
      .cls-1 {
        fill: #ffeb57;
      }

      .cls-1, .cls-2, .cls-3, .cls-4, .cls-5, .cls-6, .cls-7, .cls-8, .cls-9 {
        stroke: #000;
      }

      .cls-1, .cls-2, .cls-3, .cls-4, .cls-6, .cls-7, .cls-8, .cls-9 {
        stroke-linecap: round;
        stroke-linejoin: round;
      }

      .cls-1, .cls-4, .cls-9 {
        stroke-width: 7px;
      }

      .cls-2 {
        fill: #b9b5ff;
      }

      .cls-2, .cls-3 {
        stroke-width: 11px;
      }

      .cls-10, .cls-8 {
        fill: #fff;
      }

      .cls-3 {
        fill: url(#linear-gradient);
      }

      .cls-4 {
        fill: #9590db;
      }

      .cls-5 {
        font-family: ArialRoundedMTBold, 'Arial Rounded MT Bold';
        font-size: 53.97px;
        stroke-miterlimit: 10;
        stroke-width: 2px;
      }

      .cls-6 {
        stroke-width: 10px;
      }

      .cls-6, .cls-7, .cls-9 {
        fill: none;
      }

      .cls-7 {
        stroke-width: 8px;
      }

      .cls-8 {
        stroke-width: 15px;
      }
    </style>
    <linearGradient id="linear-gradient" x1="281.14" y1="465.33" x2="281.14" y2="296.05" gradientUnits="userSpaceOnUse">
      <stop offset="0" stop-color="#8e8bd9"/>
      <stop offset=".25" stop-color="#8b88d5"/>
      <stop offset=".44" stop-color="#8582cc"/>
      <stop offset=".61" stop-color="#7a77bb"/>
      <stop offset=".77" stop-color="#6b68a4"/>
      <stop offset=".92" stop-color="#585587"/>
      <stop offset="1" stop-color="#4b4873"/>
    </linearGradient>
  </defs>
  <g id="Layer_2-2" data-name="Layer 2">
    <g>
      <path class="cls-8" d="M498.78,384.64s-112.67,116.98-221.62,116.98-213.66-116.98-213.66-116.98c0,0,112.67-116.98,221.65-116.98s213.62,116.98,213.62,116.98Z"/>
      <circle class="cls-3" cx="281.14" cy="380.69" r="84.64"/>
      <circle class="cls-2" cx="283.84" cy="380.69" r="44.89"/>
      <path class="cls-6" d="M59.99,210.21c-29.25,1.1-53.85-21.71-54.95-50.96-1.1-29.25,21.71-53.85,50.96-54.95,11.7-.44,22.66,2.95,31.67,9.04"/>
      <path class="cls-6" d="M241.13,64.05c4.54-38.33-25.71-60.11-54.95-59.01s-52.06,25.71-50.96,54.95"/>
      <path class="cls-6" d="M314.98,108.37c8.73-39.86-25.71-66.28-54.95-65.17-7.07.27-12.37,1.3-18.44,4.05l-.46,16.8"/>
      <path class="cls-6" d="M87.67,113.34c-25.15-8.89-29.24-25.24-29.49-32.09-1.1-29.25,16.36-50.97,45.63-50.99,17.17-.01,34.66,9.36,31.42,29.74"/>
      <circle class="cls-1" cx="101.06" cy="261.68" r="13.39"/>
      <circle class="cls-4" cx="156.78" cy="215.5" r="13.39"/>
      <circle class="cls-4" cx="276.34" cy="152.7" r="13.39"/>
      <circle class="cls-4" cx="320.13" cy="196.49" r="13.39"/>
      <circle class="cls-1" cx="372.47" cy="162.32" r="13.39"/>
      <circle class="cls-4" cx="437.73" cy="220.58" r="13.39"/>
      <circle class="cls-1" cx="459.58" cy="296.05" r="13.39"/>
      <circle class="cls-1" cx="361.82" cy="237.25" r="13.39"/>
      <circle class="cls-4" cx="195.08" cy="112.38" r="13.39"/>
      <circle class="cls-1" cx="225.55" cy="169.33" r="13.39"/>
      <circle class="cls-1" cx="117.19" cy="169.17" r="13.39"/>
      <circle class="cls-1" cx="254.97" cy="220.58" r="9.47"/>
      <path class="cls-9" d="M165.17,303.7c-.11-.21-.14-6-.14-13.5,0-19.31-15.64-34.98-34.95-34.98h-15.64"/>
      <path class="cls-9" d="M228.82,273.45v-41.72c0-4.66-1.66-9.17-4.69-12.71l-31.38-36.73c-7.02-8.22-17.29-12.96-28.1-12.96h-34.06"/>
      <path class="cls-9" d="M170.17,215.5h25.1c4.4,0,8.54,2.09,11.15,5.64l7.34,9.98c2.07,2.81,5.35,4.47,8.83,4.47h6.23"/>
      <line class="cls-9" x1="203.1" y1="123.08" x2="225.55" y2="155.94"/>
      <line class="cls-9" x1="320.13" y1="264.99" x2="320.13" y2="211.11"/>
      <path class="cls-9" d="M332.12,190.56c.13.27,28.94-21.23,28.94-21.23"/>
      <path class="cls-9" d="M387,294.67c0-17.71,14.35-32.06,32.06-32.06,14.92,0,27.46,10.19,31.04,24"/>
      <line class="cls-9" x1="361.82" y1="250.64" x2="361.82" y2="279.92"/>
      <path class="cls-9" d="M376.66,238.05h8.48c2.99,0,5.84-1.22,7.91-3.38l8.58-8.97c2.63-2.75,6.27-4.31,10.08-4.31h12.84"/>
      <line class="cls-9" x1="277.3" y1="166.09" x2="277.3" y2="265.28"/>
      <line class="cls-9" x1="266.45" y1="220.58" x2="277.3" y2="220.58"/>
      <line class="cls-7" x1="457.85" y1="80.44" x2="457.85" y2="130.92"/>
      <line class="cls-7" x1="433.53" y1="105.68" x2="481.86" y2="105.68"/>
      <circle class="cls-10" cx="321.83" cy="339.27" r="13.98"/>
    </g>
    <text class="cls-5" transform="translate(256.72 399.26)"><tspan x="0" y="0">AI</tspan></text>
  </g>
</svg>