<?xml version="1.0" encoding="UTF-8"?>
<svg id="Layer_2" data-name="Layer 2" xmlns="http://www.w3.org/2000/svg" xmlns:xlink="http://www.w3.org/1999/xlink" viewBox="0 0 614.37 584.81">
  <defs>
    <style>
      .cls-1, .cls-2, .cls-3, .cls-4, .cls-5, .cls-6, .cls-7, .cls-8, .cls-9 {
        stroke-linecap: round;
        stroke-linejoin: round;
      }

      .cls-1, .cls-2, .cls-3, .cls-4, .cls-5, .cls-6, .cls-8, .cls-9 {
        stroke: #000;
      }

      .cls-1, .cls-2, .cls-6 {
        stroke-width: 12px;
      }

      .cls-1, .cls-5, .cls-7, .cls-9 {
        fill: none;
      }

      .cls-2, .cls-8 {
        fill: #9590db;
      }

      .cls-3 {
        stroke-width: 6px;
      }

      .cls-3, .cls-4 {
        fill: #ffeb57;
      }

      .cls-4 {
        stroke-width: 5px;
      }

      .cls-5, .cls-7, .cls-8 {
        stroke-width: 11px;
      }

      .cls-6 {
        fill: #ffee6b;
      }

      .cls-7 {
        stroke: #46428f;
      }

      .cls-10 {
        fill: url(#linear-gradient);
      }

      .cls-9 {
        stroke-width: 15px;
      }
    </style>
    <linearGradient id="linear-gradient" x1="374.74" y1="199.67" x2="209.08" y2="651.27" gradientUnits="userSpaceOnUse">
      <stop offset=".18" stop-color="#c0bdff"/>
      <stop offset=".37" stop-color="#bcb9fb"/>
      <stop offset=".54" stop-color="#b2afef"/>
      <stop offset=".72" stop-color="#a29fdc"/>
      <stop offset=".86" stop-color="#908dc7"/>
    </linearGradient>
  </defs>
  <g id="Layer_2-2" data-name="Layer 2">
    <g>
      <path class="cls-10" d="M35.56,354.51c40.4-55.11,109.57-138.44,174.77-138.04,55.46.34,87.41,48.63,163.22,48.63,62.85,0,158.84-171.98,158.84-171.98v446.57H35.56v-185.18Z"/>
      <path class="cls-7" d="M35.56,354.51c40.4-55.11,109.57-138.04,174.77-138.04s92.89,53.12,163.22,48.63,156.7-168.03,156.7-168.03"/>
      <path class="cls-9" d="M487.84,539.69H35.56V71.7"/>
      <polyline class="cls-9" points="7.5 104.43 35.56 71.88 63.8 104.43"/>
      <polyline class="cls-1" points="486.59 209.43 515.23 209.83 510.69 238.2"/>
      <polyline class="cls-5" points="35.56 539.69 211.75 336.93 303.03 374.34 515.23 209.83"/>
      <circle class="cls-8" cx="308.35" cy="371.38" r="19"/>
      <circle class="cls-8" cx="210.33" cy="336.61" r="29.37"/>
      <g>
        <path class="cls-6" d="M606.19,465.32l-119.6-22.81,22.82-119.64c66.06,12.6,109.38,76.4,96.78,142.46Z"/>
        <path class="cls-2" d="M576,479.84c-12.6,66.06-76.35,109.39-142.42,96.79-66.06-12.6-109.39-76.35-96.79-142.42,12.6-66.06,76.36-109.43,142.42-96.83l-22.82,119.64,119.6,22.81Z"/>
      </g>
      <path class="cls-8" d="M428.17,166.25c-17.19,17.54-41.14,28.4-67.6,28.4-52.35,0-94.77-42.42-94.77-94.77,0-49.49,37.93-90.11,86.29-94.37-16.84,17.1-27.21,40.53-27.21,66.37,0,52.35,42.46,94.77,94.77,94.77,2.86,0,5.71-.13,8.53-.4Z"/>
      <polygon class="cls-3" points="178.65 125.3 185.05 145 205.76 145 189 157.17 195.4 176.87 178.65 164.7 161.89 176.87 168.29 157.17 151.53 145 172.25 145 178.65 125.3"/>
      <polygon class="cls-4" points="456.29 59.82 453.88 76.69 469.17 84.19 452.39 87.11 449.97 103.97 442.01 88.91 425.23 91.83 437.09 79.6 429.13 64.54 444.43 72.05 456.29 59.82"/>
      <circle class="cls-3" cx="384.07" cy="117.21" r="8.09"/>
      <circle class="cls-3" cx="389.75" cy="53.28" r="8.77"/>
    </g>
  </g>
</svg>